# xmcd CD database file
# Copyright (C) 1993-1996 Ti Kan
#
# Track frame offsets:
# 150
# 15055
# 25780
# 37837
# 50645
# 61890
# 79052
# 91105
# 104525
# 115190
#
# Disc length: 1698 seconds
#
# Revision: 0
# Processed by: cddbd v1.4b41PL1 Copyright (c) Steve Scherf et al.
# Submitted via: inCDius 1.1b5
#
DISCID=6806a00a
DTITLE=Hank Williams Jr. - Classic Songs
DYEAR=1900
DGENRE=
TTITLE0=You Win Again
TTITLE1=Make The World Go Away
TTITLE2=I'm Gonna Be Your Baby Tonight
TTITLE3=Your Cheatin' Heart
TTITLE4=Big Midnight Special
TTITLE5=All For The Love Of Sunshine
TTITLE6=There Goes My Everything
TTITLE7=Rainin' In My Heart
TTITLE8=Ain't That A Shame
TTITLE9=When I Stop Dreaming
EXTD=
EXTT0=
EXTT1=
EXTT2=
EXTT3=
EXTT4=
EXTT5=
EXTT6=
EXTT7=
EXTT8=
EXTT9=
PLAYORDER=
